<svg width="500" height="500" viewBox="0 0 1024 1024" xmlns="http://www.w3.org/2000/svg"><defs><linearGradient id="b" gradientUnits="userSpaceOnUse" x1="406.821" y1="142.41" x2="406.821" y2="369.446" gradientTransform="matrix(.24314 -.97033 .35808 .09065 226.581 647.007)"><stop offset="0" stop-color="#24a567"/><stop offset="1" stop-color="#16a05d"/></linearGradient><linearGradient id="a" gradientUnits="userSpaceOnUse" x1="354.318" y1="28.882" x2="354.318" y2="195.335" gradientTransform="matrix(.80097 -.59422 .4348 .5921 37.068 261.717)"><stop offset="0" stop-color="#4889f4"/><stop offset="1" stop-color="#447ede"/></linearGradient></defs><path d="M511.848 71.345v205.288l-202.69 117.624v.041L132.28 291.652v-.039L511.848 71.345z" fill="#48cff4"/><path d="M256 28.739v105.874l104.534 60.663v.021l91.222-52.938v-.02L256 28.739z" fill="url(#a)" transform="translate(15.468 15.62) scale(1.93898)"/><path d="M511.848 952.416V747.13l202.69-117.625v-.04L891.415 732.11v.04L511.848 952.415z" fill="#d4ff66"/><path d="M132.28 732.11V291.612l176.878 102.683v235.168z" fill="#dd4e41"/><path d="M451.756 369.518V142.339l-91.222 52.958V316.58z" fill="url(#b)" transform="translate(15.468 15.62) scale(1.93898)"/><path d="M511.848 71.345v205.288l204.25 119.49-208.402 117.806L132.28 291.652v-.039L511.848 71.345z" fill="rgba(116,167,255,.639216)"/><path d="M512.344 952.655V747.367l-203.147-117.89-176.944 102.67 380.091 220.508z" fill="#f8a10a"/><path d="M512.13 952.65l-4.03-437.871 383.298-223.032.322 440.531-379.59 220.371z" fill="rgba(242,242,242,.39)"/></svg>